<?xml version="1.0" standalone="no"?>
<!DOCTYPE svg PUBLIC "-//W3C//DTD SVG 20010904//EN"
 "http://www.w3.org/TR/2001/REC-SVG-20010904/DTD/svg10.dtd">
<svg version="1.0" xmlns="http://www.w3.org/2000/svg"
 width="1825.000000pt" height="610.000000pt" viewBox="0 0 1825.000000 610.000000"
 preserveAspectRatio="xMidYMid meet">

<g transform="translate(0.000000,610.000000) scale(0.100000,-0.100000)"
fill="#000000" stroke="none">
<path d="M8084 6053 c-10 -69 3 -427 21 -573 96 -783 402 -1262 914 -1434
l104 -35 -44 -26 c-310 -184 -363 -222 -434 -312 -99 -125 -139 -247 -139
-423 0 -261 106 -558 356 -990 52 -91 125 -223 163 -295 127 -243 218 -377
281 -416 l34 -20 36 27 c44 34 107 122 169 239 27 50 108 189 181 310 308 513
444 867 444 1149 -1 266 -112 436 -410 624 -80 51 -156 101 -168 110 l-24 19
64 22 c186 67 359 196 489 366 260 338 419 887 445 1534 l7 171 -205 0 -204 0
-12 -262 c-26 -559 -83 -905 -177 -1073 -68 -120 -186 -235 -304 -294 -184
-93 -432 -107 -632 -35 -106 38 -159 72 -244 158 -186 188 -250 395 -275 886
-10 177 -6 489 5 583 l5 37 -219 0 -220 0 -7 -47z"/>
<path d="M210 5834 c-83 -30 -150 -92 -187 -174 -10 -22 -16 -64 -17 -115 0
-94 23 -151 85 -214 63 -63 120 -85 214 -85 94 0 151 22 214 85 62 62 85 120
85 214 0 94 -23 152 -85 214 -79 79 -210 111 -309 75z"/>
<path d="M1240 5834 c-83 -30 -150 -92 -187 -174 -10 -22 -16 -64 -17 -115 0
-94 23 -151 85 -214 63 -63 120 -85 214 -85 94 0 151 22 214 85 62 62 85 120
85 214 0 94 -23 152 -85 214 -79 79 -210 111 -309 75z"/>
<path d="M2280 5834 c-83 -30 -150 -92 -187 -174 -10 -22 -16 -64 -17 -115 0
-94 23 -151 85 -214 63 -63 120 -85 214 -85 94 0 151 22 214 85 62 62 85 120
85 214 0 94 -23 152 -85 214 -79 79 -210 111 -309 75z"/>
<path d="M3310 5834 c-83 -30 -150 -92 -187 -174 -10 -22 -16 -64 -17 -115 0
-94 23 -151 85 -214 63 -63 120 -85 214 -85 94 0 151 22 214 85 62 62 85 120
85 214 0 94 -23 152 -85 214 -79 79 -210 111 -309 75z"/>
<path d="M4340 5834 c-83 -30 -150 -92 -187 -174 -10 -22 -16 -64 -17 -115 0
-94 23 -151 85 -214 63 -63 120 -85 214 -85 94 0 151 22 214 85 62 62 85 120
85 214 0 94 -23 152 -85 214 -79 79 -210 111 -309 75z"/>
<path d="M5380 5834 c-83 -30 -150 -92 -187 -174 -10 -22 -16 -64 -17 -115 0
-94 23 -151 85 -214 63 -63 120 -85 214 -85 94 0 151 22 214 85 62 62 85 120
85 214 0 94 -23 152 -85 214 -79 79 -210 111 -309 75z"/>
<path d="M6410 5834 c-83 -30 -150 -92 -187 -174 -10 -22 -16 -64 -17 -115 0
-94 23 -151 85 -214 63 -63 120 -85 214 -85 94 0 151 22 214 85 62 62 85 120
85 214 0 94 -23 152 -85 214 -79 79 -210 111 -309 75z"/>
<path d="M11610 5834 c-83 -30 -150 -92 -187 -174 -10 -22 -16 -64 -17 -115 0
-94 23 -151 85 -214 63 -63 120 -85 214 -85 94 0 151 22 214 85 62 62 85 120
85 214 0 94 -23 152 -85 214 -79 79 -210 111 -309 75z"/>
<path d="M12640 5834 c-83 -30 -150 -92 -187 -174 -10 -22 -16 -64 -17 -115 0
-94 23 -151 85 -214 63 -63 120 -85 214 -85 94 0 151 22 214 85 62 62 85 120
85 214 0 94 -23 152 -85 214 -79 79 -210 111 -309 75z"/>
<path d="M13680 5834 c-83 -30 -150 -92 -187 -174 -10 -22 -16 -64 -17 -115 0
-94 23 -151 85 -214 63 -63 120 -85 214 -85 94 0 151 22 214 85 62 62 85 120
85 214 0 94 -23 152 -85 214 -79 79 -210 111 -309 75z"/>
<path d="M14710 5834 c-83 -30 -150 -92 -187 -174 -10 -22 -16 -64 -17 -115 0
-94 23 -151 85 -214 63 -63 120 -85 214 -85 94 0 151 22 214 85 62 62 85 120
85 214 0 94 -23 152 -85 214 -79 79 -210 111 -309 75z"/>
<path d="M15740 5834 c-83 -30 -150 -92 -187 -174 -10 -22 -16 -64 -17 -115 0
-94 23 -151 85 -214 63 -63 120 -85 214 -85 94 0 151 22 214 85 62 62 85 120
85 214 0 94 -23 152 -85 214 -79 79 -210 111 -309 75z"/>
<path d="M16780 5834 c-83 -30 -150 -92 -187 -174 -10 -22 -16 -64 -17 -115 0
-94 23 -151 85 -214 63 -63 120 -85 214 -85 94 0 151 22 214 85 62 62 85 120
85 214 0 94 -23 152 -85 214 -79 79 -210 111 -309 75z"/>
<path d="M17810 5834 c-83 -30 -150 -92 -187 -174 -10 -22 -16 -64 -17 -115 0
-94 23 -151 85 -214 63 -63 120 -85 214 -85 94 0 151 22 214 85 62 62 85 120
85 214 0 94 -23 152 -85 214 -79 79 -210 111 -309 75z"/>
<path d="M17392 5043 c8 -10 42 -49 75 -88 156 -180 263 -400 302 -619 6 -33
11 -117 11 -188 l0 -128 -3440 0 -3440 0 0 -90 0 -90 385 0 385 0 0 -84 c0
-47 -4 -87 -8 -90 -5 -3 -62 -10 -128 -15 -289 -25 -422 -119 -432 -306 -5
-95 9 -141 73 -236 30 -44 55 -81 55 -84 0 -2 -15 -7 -32 -10 -77 -17 -160
-73 -194 -131 -47 -80 -24 -164 73 -266 32 -33 85 -80 119 -104 163 -116 222
-114 555 22 201 81 297 108 365 101 130 -13 224 -119 226 -255 1 -75 -19 -120
-84 -188 -61 -64 -118 -96 -202 -114 -99 -20 -144 -3 -361 139 -76 50 -161 99
-189 110 -118 44 -286 50 -422 16 -195 -49 -390 -219 -494 -430 -49 -99 -70
-186 -70 -290 l0 -80 36 65 c132 236 395 442 660 516 33 9 114 19 181 21 110
5 130 3 214 -21 50 -15 154 -55 229 -91 210 -98 249 -109 360 -109 136 0 186
28 231 129 50 113 8 405 -84 579 -42 79 -109 151 -171 184 -45 24 -62 27 -146
27 -116 -1 -207 -25 -363 -96 -333 -152 -410 -172 -477 -127 -72 49 -76 99
-13 169 82 91 166 116 423 129 266 14 357 43 420 138 54 82 64 225 21 296 -40
65 -16 116 56 116 41 0 77 -44 94 -115 6 -28 13 -56 15 -63 2 -7 38 26 80 73
86 97 87 103 32 176 -54 70 -101 101 -157 107 -67 6 -98 -9 -145 -69 -22 -27
-51 -52 -64 -56 -44 -11 -52 15 -52 174 l0 143 810 0 810 0 0 -113 c0 -63 -2
-116 -5 -119 -3 -2 -51 6 -107 19 -122 27 -274 31 -361 8 -161 -42 -301 -165
-393 -345 -39 -78 -46 -217 -15 -319 65 -215 347 -462 601 -527 94 -24 261
-15 352 19 153 56 270 154 331 275 49 98 61 164 54 302 -6 152 -28 209 -111
298 -102 109 -96 90 -96 309 l0 193 1255 0 1255 0 0 -185 0 -185 -35 -31 c-32
-29 -35 -37 -35 -86 0 -29 2 -53 5 -53 3 0 64 23 136 50 176 68 270 90 419 97
164 7 218 -7 289 -76 l51 -50 0 -65 0 -66 -61 31 c-197 99 -516 70 -725 -66
-91 -60 -190 -164 -221 -232 -84 -182 34 -381 275 -465 59 -20 86 -23 227 -23
189 0 242 11 389 83 l98 49 13 -31 c11 -27 28 -37 117 -74 56 -23 106 -42 111
-42 11 0 8 741 -3 845 -6 50 -19 121 -31 159 -62 209 -319 283 -707 203 -62
-13 -115 -21 -117 -18 -3 2 -5 55 -5 118 l0 113 655 0 655 0 2 -661 3 -662
123 -64 122 -64 0 726 0 725 110 0 110 0 0 90 0 90 -110 0 -110 0 0 154 c0
331 -93 601 -286 829 l-48 57 -160 0 c-150 0 -158 -1 -144 -17z m-5643 -1504
c93 -20 134 -73 134 -174 0 -107 -56 -201 -168 -280 -183 -131 -331 -133 -420
-7 -26 38 -30 52 -29 105 1 82 32 146 104 217 67 66 158 116 243 135 79 17 77
17 136 4z m1803 -59 c121 -37 188 -110 210 -227 34 -182 -83 -394 -299 -543
-202 -140 -378 -158 -518 -52 -95 72 -124 142 -107 262 16 111 40 176 97 260
112 166 354 312 526 319 15 1 56 -8 91 -19z m3319 -424 c143 -38 239 -93 239
-139 0 -31 -103 -125 -195 -178 -169 -97 -294 -132 -475 -133 -136 -1 -198 14
-237 57 -32 35 -33 51 -7 107 54 117 222 244 374 284 72 19 231 20 301 2z"/>
<path d="M3780 5031 c0 -11 46 -88 103 -173 111 -165 192 -318 231 -438 33
-100 56 -263 56 -394 l0 -106 -2050 0 -2050 0 0 -91 0 -91 858 3 857 4 3 -187
2 -187 -35 -32 c-32 -29 -35 -37 -35 -86 0 -29 2 -53 5 -53 3 0 64 23 136 50
176 68 270 90 419 97 164 7 218 -7 289 -76 l51 -50 0 -65 0 -66 -61 31 c-197
99 -516 70 -725 -66 -91 -60 -190 -164 -221 -232 -84 -182 34 -381 275 -465
59 -20 86 -23 227 -23 189 0 242 11 389 83 l98 49 13 -31 c11 -27 28 -37 117
-74 56 -23 106 -42 111 -42 11 0 8 741 -3 845 -6 50 -19 121 -31 159 -62 209
-319 283 -707 203 -62 -13 -115 -21 -117 -18 -3 2 -5 58 -5 123 l0 118 1098
-2 1097 -3 3 -282 c1 -156 0 -283 -3 -283 -3 0 -70 64 -148 143 -123 124 -153
149 -221 183 l-79 39 -127 0 c-126 0 -126 0 -204 -38 -97 -49 -189 -134 -262
-243 -68 -102 -94 -173 -94 -256 1 -85 14 -140 56 -222 76 -152 226 -303 385
-389 148 -81 270 -87 407 -21 62 31 97 58 181 141 56 57 105 103 107 103 2 0
4 -44 4 -98 l0 -99 130 -55 130 -56 2 716 3 717 155 0 155 0 5 -645 5 -645
125 -67 c69 -37 128 -67 133 -68 4 0 7 140 7 310 0 285 2 315 20 368 39 112
148 238 278 323 97 64 171 91 259 97 87 5 133 -9 185 -56 95 -86 129 -239 92
-420 -28 -139 -85 -232 -258 -419 l-67 -72 120 -71 c96 -58 123 -70 138 -62
38 21 191 190 227 251 136 233 123 484 -40 728 -83 124 -173 193 -307 234 -56
18 -87 20 -191 18 -120 -4 -124 -5 -201 -44 -53 -27 -105 -65 -162 -118 l-83
-79 0 221 0 221 713 -2 712 -3 3 -187 2 -187 -35 -32 c-32 -29 -35 -37 -35
-86 0 -29 2 -53 5 -53 3 0 64 23 136 50 176 68 270 90 419 97 164 7 218 -7
289 -76 l51 -50 0 -65 0 -66 -61 31 c-197 99 -516 70 -725 -66 -91 -60 -190
-164 -221 -232 -84 -182 34 -381 275 -465 59 -20 86 -23 227 -23 189 0 242 11
389 83 l98 49 13 -31 c11 -27 28 -37 117 -74 56 -23 106 -42 111 -42 11 0 8
741 -3 845 -6 50 -19 121 -31 159 -62 209 -319 283 -707 203 -62 -13 -115 -21
-117 -18 -3 2 -5 58 -5 123 l0 118 490 0 490 0 0 85 0 85 -1299 0 -1299 0 -7
83 c-29 353 -208 745 -401 877 -43 30 -43 30 -193 30 l-151 0 81 -77 c152
-145 270 -330 323 -505 34 -111 56 -244 56 -334 l0 -74 -149 0 -149 0 -6 88
c-17 249 -46 412 -98 561 -55 158 -152 333 -243 439 l-37 42 -144 0 c-135 0
-144 -1 -144 -19z m105 -1712 c30 -11 76 -35 102 -53 142 -97 149 -234 23
-414 -103 -147 -225 -257 -347 -315 -87 -40 -184 -44 -249 -10 -56 30 -119
104 -142 167 -78 208 5 399 239 556 150 100 244 118 374 69z m-1504 -363 c143
-38 239 -93 239 -139 0 -31 -103 -125 -195 -178 -169 -97 -294 -132 -475 -133
-136 -1 -198 14 -237 57 -32 35 -33 51 -7 107 54 117 222 244 374 284 72 19
231 20 301 2z m4680 0 c143 -38 239 -93 239 -139 0 -31 -103 -125 -195 -178
-169 -97 -294 -132 -475 -133 -136 -1 -198 14 -237 57 -32 35 -33 51 -7 107
54 117 222 244 374 284 72 19 231 20 301 2z"/>
<path d="M15090 3650 c-89 -33 -216 -127 -353 -260 l-127 -125 0 173 0 172
-115 0 -115 0 2 -972 3 -973 113 -58 112 -58 0 616 c0 338 3 615 6 615 3 0 43
-34 87 -76 109 -101 224 -187 311 -232 68 -36 75 -37 171 -37 87 1 108 5 165
29 197 86 348 243 402 419 29 97 23 255 -15 345 -67 160 -214 325 -351 393
-71 35 -94 41 -162 45 -63 4 -90 0 -134 -16z m379 -206 c60 -30 120 -99 146
-169 37 -94 -9 -236 -118 -366 -125 -150 -299 -238 -473 -239 -101 0 -245 60
-308 130 -36 40 -38 46 -34 95 7 89 49 158 167 275 131 130 280 233 396 272
103 35 156 36 224 2z"/>
<path d="M855 3545 c-92 -20 -264 -94 -307 -133 -17 -14 -18 -12 -18 41 l0 57
-140 0 -140 0 2 -547 3 -546 130 -68 c72 -38 133 -69 137 -69 4 0 8 163 10
363 4 342 5 365 26 420 35 95 91 177 178 262 142 140 250 186 358 152 37 -12
64 -29 86 -54 27 -31 31 -41 25 -72 -4 -20 -16 -50 -26 -68 -38 -61 -141 -127
-218 -139 -23 -4 -40 -10 -39 -15 8 -22 205 -238 218 -238 45 -2 202 138 251
224 76 132 5 293 -171 389 -99 54 -237 69 -365 41z"/>
<path d="M7960 1095 c-173 -49 -292 -169 -344 -345 -24 -78 -31 -230 -16 -317
48 -284 295 -465 582 -425 269 38 438 248 438 547 0 274 -143 479 -375 540
-71 18 -222 18 -285 0z m306 -145 c133 -65 203 -201 204 -392 0 -151 -38 -255
-123 -335 -68 -65 -142 -93 -242 -93 -110 0 -175 27 -251 104 -90 92 -108 143
-109 316 0 116 3 145 23 202 70 201 303 294 498 198z"/>
<path d="M160 555 l0 -535 400 0 400 0 0 65 0 65 -330 0 -330 0 0 180 0 180
295 0 295 0 0 65 0 65 -295 0 -295 0 0 165 0 165 315 0 315 0 0 60 0 60 -385
0 -385 0 0 -535z"/>
<path d="M2560 555 l0 -535 70 0 70 0 1 453 0 452 152 -450 153 -450 66 -3 66
-3 20 53 c10 29 79 228 153 441 l134 388 3 -441 2 -440 70 0 70 0 0 535 0 535
-99 0 -98 0 -57 -162 c-31 -90 -101 -293 -155 -452 -54 -159 -100 -285 -103
-280 -3 5 -72 208 -152 452 l-148 442 -109 0 -109 0 0 -535z"/>
<path d="M5230 556 l0 -536 70 0 70 0 0 219 0 219 218 4 c173 4 226 8 264 22
69 26 130 84 162 157 26 56 28 69 24 158 -3 82 -7 103 -30 141 -35 60 -73 94
-133 122 -48 22 -61 23 -347 26 l-298 3 0 -535z m566 392 c143 -77 129 -298
-22 -346 -21 -7 -121 -15 -221 -19 l-183 -6 0 198 0 197 198 -4 c160 -3 203
-7 228 -20z"/>
<path d="M10210 556 l0 -536 70 0 70 0 0 240 0 240 103 0 c139 0 192 -16 248
-77 43 -46 119 -157 223 -326 l48 -77 90 0 90 0 -23 38 c-167 273 -235 365
-312 423 l-38 28 43 11 c106 26 173 74 212 152 22 43 26 66 26 132 0 94 -25
160 -81 213 -70 66 -79 68 -441 71 l-328 3 0 -535z m562 413 c67 -15 131 -74
142 -131 17 -93 -47 -186 -142 -207 -29 -6 -136 -11 -237 -11 l-185 0 0 180 0
180 185 0 c101 0 208 -5 237 -11z"/>
<path d="M12730 555 l0 -535 70 0 70 0 0 535 0 535 -70 0 -70 0 0 -535z"/>
<path d="M14532 698 c4 -373 5 -396 26 -460 45 -134 147 -210 312 -230 207
-26 368 35 446 168 47 80 54 148 54 547 l0 367 -70 0 -70 0 0 -347 c0 -466
-13 -523 -126 -579 -142 -70 -336 -27 -394 85 -32 64 -40 156 -40 509 l0 332
-71 0 -70 0 3 -392z"/>
<path d="M17020 555 l0 -535 70 0 70 0 1 453 0 452 152 -450 153 -450 66 -3
66 -3 20 53 c10 29 79 228 153 441 l134 388 3 -441 2 -440 70 0 70 0 0 535 0
535 -99 0 -98 0 -57 -162 c-31 -90 -101 -293 -155 -452 -54 -159 -100 -285
-103 -280 -3 5 -72 208 -152 452 l-148 442 -109 0 -109 0 0 -535z"/>
</g>
</svg>
