<?xml version="1.0" standalone="no"?>
<!DOCTYPE svg PUBLIC "-//W3C//DTD SVG 20010904//EN"
 "http://www.w3.org/TR/2001/REC-SVG-20010904/DTD/svg10.dtd">
<svg version="1.0" xmlns="http://www.w3.org/2000/svg"
 width="512.000000pt" height="512.000000pt" viewBox="0 0 512.000000 512.000000"
 preserveAspectRatio="xMidYMid meet">
<metadata>
Created by potrace 1.14, written by Peter Selinger 2001-2017
</metadata>
<g transform="translate(0.000000,512.000000) scale(0.100000,-0.100000)"
fill="#000000" stroke="none">
<path d="M1286 4785 c-6 -16 0 -489 7 -520 2 -11 8 -51 12 -90 27 -269 113
-581 221 -797 98 -198 263 -397 412 -497 85 -57 215 -119 307 -145 l76 -22
-48 -31 c-26 -16 -91 -55 -143 -85 -236 -138 -343 -257 -401 -448 -30 -98 -32
-284 -5 -405 56 -251 146 -457 368 -839 66 -113 121 -215 123 -226 1 -9 76
-142 123 -220 79 -130 131 -193 182 -220 18 -9 26 -8 43 7 75 65 110 111 177
238 30 55 85 152 123 215 218 357 290 495 407 775 27 66 64 196 85 300 4 17 9
80 12 141 7 133 -11 231 -60 327 -67 129 -131 192 -317 314 -246 162 -226 146
-199 156 13 5 33 13 44 17 11 4 36 14 55 21 57 21 181 97 250 154 317 260 531
765 606 1425 10 90 13 138 20 303 l7 167 -207 0 c-189 0 -206 -1 -207 -17 0
-10 -2 -70 -4 -133 -4 -156 -14 -357 -20 -400 -2 -19 -7 -66 -10 -105 -6 -66
-8 -86 -20 -187 -47 -382 -135 -572 -340 -728 -176 -135 -453 -176 -695 -104
-193 58 -353 209 -441 415 -30 70 -62 187 -73 264 -4 22 -8 51 -11 65 -25 142
-38 625 -22 853 l5 77 -218 0 c-183 0 -219 -2 -224 -15z"/>
</g>
</svg>
